<svg xmlns="http://www.w3.org/2000/svg" viewBox="0 0 6132.77 6008.43" style="shape-rendering:geometricPrecision;fill-rule:evenodd;clip-rule:evenodd">
  <path fill="white" d="M2401.99 5234.12c0,310.69 -102.29,559.15 -246.37,774.31 762.65,0 1237,-894.81 786.65,-1807.53 -335,-606.7 -670.1,-1196.16 -1024.06,-1791.43 -73.69,-102.46 -10.19,-58.85 -114.54,-96.63l-2.33 1304.59c1.19,322.13 211.68,438.05 424.68,912.75 58.04,129.32 175.98,527.33 175.98,703.93z"/>
  <path fill="white" d="M3633.85 1503.33c808.66,0 744.85,916.57 945.23,1518.5 84.7,254.41 306.61,559.33 549.84,682.02 416.43,210.06 587.13,118.97 968.65,87.23l0 -70.39c-726,-169.14 -683.26,-1146.84 -856.52,-1677.6 -303.82,-930.68 -1531.09,-824.8 -1607.2,-539.76z"/>
  <path fill="white" d="M360.61 588.24c594.32,-314.47 1152.78,193.46 1457.23,654.54 423.97,642.09 857.26,1420.65 1242.33,2105.75 25.88,46.05 32.31,65.93 57.63,113.71 182.92,345.26 597.85,1090.47 843.72,1341.91 775.93,740.37 2096.74,269.49 2171.25,-625.9 -288.16,67.13 -611.74,267.66 -1089.6,36.99l-88.04 -50.81c-578.89,-357.35 -1219.71,-1773.84 -1587.87,-2394.51l-368.76 -651.92c-170.46,-296.06 -377.83,-655.46 -681.55,-867.08 -897.2,-625.13 -1888.66,83.86 -1956.34,337.32z"/>
  <path fill="white" d="M1402.16 1698.49c-292.78,-469.31 -1062.07,-250.98 -1288.26,262.04 -243.87,553.09 -56.46,1196.73 190.63,1605.07 509.43,841.88 1569.52,1468.4 1569.52,2442.83 373.01,-273.3 253.3,-1112.68 0.07,-1654.28 -244.33,-522.57 -899.92,-1250.27 -882.59,-2006.29 6.62,-288.79 112.39,-572.21 410.64,-649.37z"/>
</svg>
